<svg width="514" height="371" viewBox="0 0 514 371" fill="none" xmlns="http://www.w3.org/2000/svg">
<g filter="url(#filter0_i_518_561)">
<path d="M328.626 367.572C288.665 376.953 278.081 324.522 239.38 324.887C188.745 325.366 132.879 379.012 86.3033 369.861C39.0305 360.572 15.0699 319.317 5.33573 278.9C-5.1924 235.187 -1.3771 183.319 30.2932 137.303C61.5911 91.8274 117.526 57.7236 172.888 35.4498C221.944 15.7133 269.24 26.3509 319.014 21.1432C367.133 16.1086 422.348 -10.6794 460.61 5.34619C498.937 21.3993 512.881 62.7365 513.038 102.409C513.177 137.497 481.807 172.59 461.411 208.004C445.828 235.063 428.682 260.123 407.659 285.387C383.295 314.666 366.748 358.624 328.626 367.572Z" fill="#484C9A"/>
</g>
<path d="M328.512 367.086C308.813 371.709 296.359 361.142 283.875 349.248C283.116 348.525 282.357 347.797 281.596 347.066C269.892 335.84 257.771 324.214 239.375 324.387C226.633 324.508 213.584 327.972 200.473 332.936C189.215 337.197 177.883 342.576 166.643 347.91C164.794 348.787 162.949 349.663 161.106 350.533C148.046 356.697 135.145 362.545 122.607 366.283C110.071 370.02 97.9344 371.636 86.3997 369.37C39.4126 360.138 15.538 319.125 5.82186 278.783C-4.67938 235.181 -0.870592 183.465 30.7051 137.586C61.9214 92.2294 117.749 58.1726 173.075 35.9137C197.52 26.0787 221.537 23.8063 245.691 23.3481C253.261 23.2045 260.852 23.2395 268.475 23.2747C285.146 23.3516 301.969 23.4292 319.066 21.6405C335.516 19.9193 352.816 15.656 369.946 11.4344C377.906 9.47278 385.829 7.52018 393.614 5.83579C418.214 0.512954 441.443 -2.13946 460.417 5.80738C498.466 21.7439 512.382 62.8141 512.538 102.411C512.607 119.813 504.86 137.26 494.494 154.83C489.563 163.189 484.05 171.559 478.52 179.954C478.242 180.377 477.963 180.8 477.684 181.224C471.878 190.04 466.085 198.886 460.978 207.754C445.408 234.79 428.278 259.827 407.275 285.067C401.165 292.41 395.549 300.667 389.976 309.045C389.272 310.103 388.569 311.163 387.866 312.223C382.995 319.566 378.113 326.926 372.903 333.802C360.978 349.54 347.401 362.652 328.512 367.086Z" stroke="black"/>
<defs>
<filter id="filter0_i_518_561" x="0.0776367" y="0.295776" width="532.961" height="402.615" filterUnits="userSpaceOnUse" color-interpolation-filters="sRGB">
<feFlood flood-opacity="0" result="BackgroundImageFix"/>
<feBlend mode="normal" in="SourceGraphic" in2="BackgroundImageFix" result="shape"/>
<feColorMatrix in="SourceAlpha" type="matrix" values="0 0 0 0 0 0 0 0 0 0 0 0 0 0 0 0 0 0 127 0" result="hardAlpha"/>
<feOffset dx="20" dy="35"/>
<feGaussianBlur stdDeviation="16"/>
<feComposite in2="hardAlpha" operator="arithmetic" k2="-1" k3="1"/>
<feColorMatrix type="matrix" values="0 0 0 0 0 0 0 0 0 0 0 0 0 0 0 0 0 0 0.25 0"/>
<feBlend mode="normal" in2="shape" result="effect1_innerShadow_518_561"/>
</filter>
</defs>
</svg>
